<?xml version="1.0" encoding="UTF-8" standalone="no"?>
<!DOCTYPE svg PUBLIC "-//W3C//DTD SVG 1.1//EN" "http://www.w3.org/Graphics/SVG/1.1/DTD/svg11.dtd">
<svg width="100%" height="100%" viewBox="0 0 1460 641" version="1.1" xmlns="http://www.w3.org/2000/svg" xmlns:xlink="http://www.w3.org/1999/xlink" xml:space="preserve" xmlns:serif="http://www.serif.com/" style="fill-rule:evenodd;clip-rule:evenodd;stroke-linejoin:round;stroke-miterlimit:1.41421;">
    <g transform="matrix(1,0,0,1,-2740.9,-1205.15)">
        <g id="for-signature" serif:id="for signature" transform="matrix(0.882408,0,0,0.387584,2740.9,1205.15)">
            <rect x="0" y="0" width="1653.54" height="1653.54" style="fill:none;"/>
            <g transform="matrix(1.87265,0,0,4.26343,-585.847,-2281.4)">
                <g>
                    <path d="M347.045,622.079L347.045,747.779C347.045,766.579 351.195,780.579 359.495,789.779C367.795,798.979 379.445,803.579 394.445,803.579C409.245,803.579 420.795,798.979 429.095,789.779C437.395,780.579 441.545,766.579 441.545,747.779L441.545,622.079L475.745,622.079L475.745,747.779C475.745,776.779 468.245,798.729 453.245,813.629C438.245,828.529 418.445,835.979 393.845,835.979C369.445,835.979 349.845,828.529 335.045,813.629C320.245,798.729 312.845,776.779 312.845,747.779L312.845,622.079L347.045,622.079ZM1092.94,835.979L1059.64,835.979L1141.25,622.079L1174.55,622.079L1092.94,835.979ZM1019.55,835.979L986.245,835.979L1067.85,622.079L1101.14,622.079L1019.55,835.979ZM934.245,833.879L895.545,833.879L895.545,796.079L934.245,796.079L934.245,833.879ZM835.745,833.879L728.345,833.879L728.345,622.079L762.545,622.079L762.545,807.179L835.745,807.179L835.745,833.879ZM549.845,833.879L515.645,833.879L515.645,622.379L549.845,622.379L652.745,779.279L652.745,622.379L686.945,622.379L686.945,833.879L652.745,833.879L549.845,677.579L549.845,833.879ZM934.245,706.679L895.545,706.679L895.545,668.879L934.245,668.879L934.245,706.679Z" style="fill-rule:nonzero;"/>
                </g>
            </g>
        </g>
    </g>
</svg>
