<?xml version="1.0" encoding="UTF-8" standalone="no"?><!DOCTYPE svg PUBLIC "-//W3C//DTD SVG 1.1//EN" "http://www.w3.org/Graphics/SVG/1.1/DTD/svg11.dtd"><svg width="100%" height="100%" viewBox="0 0 1655 642" version="1.1" xmlns="http://www.w3.org/2000/svg" xmlns:xlink="http://www.w3.org/1999/xlink" xml:space="preserve" xmlns:serif="http://www.serif.com/" style="fill-rule:evenodd;clip-rule:evenodd;stroke-linejoin:round;stroke-miterlimit:2;"><g><path d="M171.333,144.496l0,207.712c0,31.063 6.859,54.2 20.571,69.4c13.717,15.204 32.967,22.805 57.754,22.805c24.455,-0 43.542,-7.601 57.259,-22.805c13.712,-15.2 20.571,-38.337 20.571,-69.4l-0,-207.712l56.512,-0l0,207.712c0,47.921 -12.392,84.192 -37.179,108.813c-24.788,24.621 -57.504,36.929 -98.154,36.929c-40.321,-0 -72.709,-12.308 -97.163,-36.929c-24.458,-24.621 -36.683,-60.892 -36.683,-108.813l-0,-207.712l56.512,-0Zm1232.55,353.454l-55.025,-0l134.842,-353.454l55.025,-0l-134.842,353.454Zm-121.287,-0l-55.025,-0l134.837,-353.454l55.025,-0l-134.837,353.454Zm-140.954,-3.467l-63.946,0l-0,-62.462l63.946,-0l-0,62.462Zm-162.763,0l-177.471,0l0,-349.987l56.513,-0l-0,305.867l120.958,-0l0,44.12Zm-472.433,0l-56.513,0l0,-349.491l56.513,-0l170.037,259.266l0,-259.266l56.513,-0l-0,349.491l-56.513,0l-170.037,-258.279l-0,258.279Zm635.196,-210.191l-63.946,-0l-0,-62.463l63.946,0l-0,62.463Z" style="fill:#fff;fill-rule:nonzero;"/></g></svg>